<svg data-v-423bf9ae="" xmlns="http://www.w3.org/2000/svg" viewBox="0 0 400.65793492929186 60" class="font"><!----><!----><!----><g data-v-423bf9ae="" id="af9a4cc2-fcd7-4fae-b10b-7b7e58da1450" fill="#000000" transform="matrix(5.639098067841383,0,0,5.639098067841383,-0.9586405197545957,-16.97368536884251)"><path d="M2.23 13.51L0.17 6.65L1.65 6.65L2.97 12.12L4.42 6.86L5.73 6.86L7.20 12.12L8.51 6.65L10.00 6.65L7.92 13.51L6.51 13.51L5.08 8.44L3.64 13.51L2.23 13.51ZM12.60 13.65L12.60 13.65Q11.65 13.65 11.07 13.09L11.07 13.09L11.07 13.09Q10.49 12.53 10.49 11.66L10.49 11.66L10.49 11.66Q10.49 10.36 11.72 9.80L11.72 9.80L11.72 9.80Q12.95 9.24 14.59 9.21L14.59 9.21L14.59 9.21Q14.59 8.29 14.23 7.96L14.23 7.96L14.23 7.96Q13.87 7.63 13.09 7.63L13.09 7.63L13.09 7.63Q12.66 7.63 12.22 7.76L12.22 7.76L12.22 7.76Q11.79 7.90 11.28 8.25L11.28 8.25L11.10 7.22L11.10 7.22Q11.52 6.90 12.14 6.71L12.14 6.71L12.14 6.71Q12.75 6.51 13.43 6.51L13.43 6.51L13.43 6.51Q14.31 6.51 14.83 6.82L14.83 6.82L14.83 6.82Q15.36 7.13 15.60 7.84L15.60 7.84L15.60 7.84Q15.85 8.55 15.85 9.80L15.85 9.80L15.85 11.20L15.85 11.20Q15.85 11.76 15.90 12.05L15.90 12.05L15.90 12.05Q15.95 12.33 16.11 12.49L16.11 12.49L16.11 12.49Q16.28 12.64 16.63 12.64L16.63 12.64L16.76 12.64L16.56 13.65L16.46 13.65L16.46 13.65Q15.88 13.65 15.54 13.54L15.54 13.54L15.54 13.54Q15.20 13.43 15.03 13.22L15.03 13.22L15.03 13.22Q14.85 13.01 14.70 12.64L14.70 12.64L14.70 12.64Q13.83 13.65 12.60 13.65L12.60 13.65ZM12.84 12.64L12.84 12.64Q13.34 12.64 13.81 12.39L13.81 12.39L13.81 12.39Q14.28 12.14 14.59 11.72L14.59 11.72L14.59 10.08L14.59 10.08Q13.08 10.14 12.43 10.48L12.43 10.48L12.43 10.48Q11.77 10.82 11.77 11.59L11.77 11.59L11.77 11.59Q11.77 12.12 12.06 12.38L12.06 12.38L12.06 12.38Q12.35 12.64 12.84 12.64L12.84 12.64ZM17.72 5.11L17.72 3.71L18.98 3.71L18.98 5.11L17.72 5.11ZM17.72 13.51L17.72 6.65L18.98 6.65L18.98 13.51L17.72 13.51ZM22.58 13.51L19.96 6.65L21.36 6.65L23.28 12.12L25.19 6.65L26.60 6.65L24.00 13.51L22.58 13.51ZM30.87 13.65L30.87 13.65Q29.69 13.65 28.86 13.17L28.86 13.17L28.86 13.17Q28.03 12.68 27.59 11.86L27.59 11.86L27.59 11.86Q27.16 11.03 27.16 10.02L27.16 10.02L27.16 10.02Q27.16 9.06 27.56 8.25L27.56 8.25L27.56 8.25Q27.96 7.45 28.72 6.98L28.72 6.98L28.72 6.98Q29.48 6.51 30.52 6.51L30.52 6.51L30.52 6.51Q31.84 6.51 32.66 7.28L32.66 7.28L32.66 7.28Q33.47 8.05 33.47 9.41L33.47 9.41L33.47 9.41Q33.47 9.76 33.42 10.08L33.42 10.08L28.45 10.08L28.45 10.08Q28.57 11.41 29.26 11.97L29.26 11.97L29.26 11.97Q29.95 12.53 31.02 12.53L31.02 12.53L31.02 12.53Q32.10 12.53 33.00 12.12L33.00 12.12L33.17 13.12L33.17 13.12Q31.98 13.65 30.87 13.65L30.87 13.65ZM28.56 9.21L32.17 9.21L32.17 9.21Q32.17 8.47 31.75 8.05L31.75 8.05L31.75 8.05Q31.33 7.63 30.49 7.63L30.49 7.63L30.49 7.63Q29.68 7.63 29.22 8.03L29.22 8.03L29.22 8.03Q28.76 8.43 28.56 9.21L28.56 9.21ZM34.59 13.51L34.59 12.03L36.11 12.03L36.11 13.51L34.59 13.51ZM40.81 13.65L40.81 13.65Q39.69 13.65 38.88 13.19L38.88 13.19L38.88 13.19Q38.08 12.73 37.67 11.92L37.67 11.92L37.67 11.92Q37.27 11.12 37.27 10.12L37.27 10.12L37.27 10.12Q37.27 8.50 38.18 7.50L38.18 7.50L38.18 7.50Q39.10 6.51 40.91 6.51L40.91 6.51L40.91 6.51Q41.97 6.51 42.78 6.92L42.78 6.92L42.59 8.02L42.59 8.02Q41.73 7.63 40.88 7.63L40.88 7.63L40.88 7.63Q39.76 7.63 39.16 8.27L39.16 8.27L39.16 8.27Q38.56 8.90 38.56 10.07L38.56 10.07L38.56 10.07Q38.56 11.23 39.14 11.89L39.14 11.89L39.14 11.89Q39.72 12.54 40.85 12.54L40.85 12.54L40.85 12.54Q41.76 12.54 42.60 12.12L42.60 12.12L42.77 13.13L42.77 13.13Q42.46 13.34 41.92 13.50L41.92 13.50L41.92 13.50Q41.38 13.65 40.81 13.65L40.81 13.65ZM47.01 13.65L47.01 13.65Q45.96 13.65 45.19 13.18L45.19 13.18L45.19 13.18Q44.42 12.71 44.02 11.90L44.02 11.90L44.02 11.90Q43.61 11.09 43.61 10.08L43.61 10.08L43.61 10.08Q43.61 9.07 44.02 8.26L44.02 8.26L44.02 8.26Q44.42 7.45 45.19 6.98L45.19 6.98L45.19 6.98Q45.96 6.51 47.01 6.51L47.01 6.51L47.01 6.51Q48.05 6.51 48.83 6.98L48.83 6.98L48.83 6.98Q49.60 7.45 50.01 8.26L50.01 8.26L50.01 8.26Q50.41 9.07 50.41 10.08L50.41 10.08L50.41 10.08Q50.41 11.09 50.01 11.90L50.01 11.90L50.01 11.90Q49.60 12.71 48.83 13.18L48.83 13.18L48.83 13.18Q48.05 13.65 47.01 13.65L47.01 13.65ZM47.01 12.53L47.01 12.53Q48.02 12.53 48.57 11.89L48.57 11.89L48.57 11.89Q49.13 11.24 49.13 10.08L49.13 10.08L49.13 10.08Q49.13 8.92 48.57 8.27L48.57 8.27L48.57 8.27Q48.02 7.63 47.01 7.63L47.01 7.63L47.01 7.63Q46.00 7.63 45.45 8.27L45.45 8.27L45.45 8.27Q44.90 8.92 44.90 10.08L44.90 10.08L44.90 10.08Q44.90 11.24 45.45 11.89L45.45 11.89L45.45 11.89Q46.00 12.53 47.01 12.53L47.01 12.53ZM56.53 3.01L57.79 3.01L57.79 13.51L56.67 13.51L56.53 12.67L56.53 12.67Q56.18 13.15 55.62 13.40L55.62 13.40L55.62 13.40Q55.06 13.65 54.43 13.65L54.43 13.65L54.43 13.65Q53.56 13.65 52.85 13.17L52.85 13.17L52.85 13.17Q52.14 12.70 51.72 11.89L51.72 11.89L51.72 11.89Q51.31 11.07 51.31 10.09L51.31 10.09L51.31 10.09Q51.31 9.14 51.70 8.32L51.70 8.32L51.70 8.32Q52.08 7.49 52.79 7L52.79 7L52.79 7Q53.51 6.51 54.43 6.51L54.43 6.51L54.43 6.51Q55.05 6.51 55.59 6.73L55.59 6.73L55.59 6.73Q56.14 6.96 56.53 7.42L56.53 7.42L56.53 3.01ZM54.66 12.53L54.66 12.53Q55.16 12.53 55.62 12.27L55.62 12.27L55.62 12.27Q56.08 12.01 56.38 11.47L56.38 11.47L56.38 11.47Q56.67 10.92 56.67 10.09L56.67 10.09L56.67 10.09Q56.67 9.32 56.38 8.76L56.38 8.76L56.38 8.76Q56.08 8.20 55.62 7.92L55.62 7.92L55.62 7.92Q55.15 7.63 54.66 7.63L54.66 7.63L54.66 7.63Q53.70 7.63 53.15 8.32L53.15 8.32L53.15 8.32Q52.60 9.02 52.60 10.09L52.60 10.09L52.60 10.09Q52.60 11.13 53.16 11.83L53.16 11.83L53.16 11.83Q53.72 12.53 54.66 12.53L54.66 12.53ZM62.78 13.65L62.78 13.65Q61.60 13.65 60.77 13.17L60.77 13.17L60.77 13.17Q59.93 12.68 59.50 11.86L59.50 11.86L59.50 11.86Q59.07 11.03 59.07 10.02L59.07 10.02L59.07 10.02Q59.07 9.06 59.47 8.25L59.47 8.25L59.47 8.25Q59.86 7.45 60.63 6.98L60.63 6.98L60.63 6.98Q61.39 6.51 62.43 6.51L62.43 6.51L62.43 6.51Q63.74 6.51 64.56 7.28L64.56 7.28L64.56 7.28Q65.38 8.05 65.38 9.41L65.38 9.41L65.38 9.41Q65.38 9.76 65.32 10.08L65.32 10.08L60.35 10.08L60.35 10.08Q60.48 11.41 61.17 11.97L61.17 11.97L61.17 11.97Q61.85 12.53 62.93 12.53L62.93 12.53L62.93 12.53Q64.01 12.53 64.90 12.12L64.90 12.12L65.07 13.12L65.07 13.12Q63.88 13.65 62.78 13.65L62.78 13.65ZM60.47 9.21L64.08 9.21L64.08 9.21Q64.08 8.47 63.66 8.05L63.66 8.05L63.66 8.05Q63.24 7.63 62.40 7.63L62.40 7.63L62.40 7.63Q61.59 7.63 61.12 8.03L61.12 8.03L61.12 8.03Q60.66 8.43 60.47 9.21L60.47 9.21ZM68.60 13.65L68.60 13.65Q67.79 13.65 67.18 13.46L67.18 13.46L67.18 13.46Q66.57 13.27 66.25 13.05L66.25 13.05L66.40 11.83L66.40 11.83Q66.68 12.08 67.26 12.31L67.26 12.31L67.26 12.31Q67.84 12.53 68.54 12.53L68.54 12.53L68.54 12.53Q69.20 12.53 69.56 12.31L69.56 12.31L69.56 12.31Q69.92 12.08 69.92 11.68L69.92 11.68L69.92 11.68Q69.92 11.20 69.52 10.96L69.52 10.96L69.52 10.96Q69.13 10.71 68.54 10.54L68.54 10.54L68.54 10.54Q67.90 10.37 67.46 10.18L67.46 10.18L67.46 10.18Q67.02 10.00 66.70 9.60L66.70 9.60L66.70 9.60Q66.39 9.21 66.39 8.57L66.39 8.57L66.39 8.57Q66.39 7.69 67.02 7.10L67.02 7.10L67.02 7.10Q67.65 6.51 68.96 6.51L68.96 6.51L68.96 6.51Q69.57 6.51 69.99 6.63L69.99 6.63L69.99 6.63Q70.41 6.75 70.83 6.96L70.83 6.96L70.67 8.11L70.67 8.11Q70.34 7.83 69.93 7.67L69.93 7.67L69.93 7.67Q69.52 7.50 68.99 7.50L68.99 7.50L68.99 7.50Q68.38 7.50 68.02 7.73L68.02 7.73L68.02 7.73Q67.66 7.97 67.66 8.43L67.66 8.43L67.66 8.43Q67.66 8.74 67.83 8.93L67.83 8.93L67.83 8.93Q68.00 9.11 68.31 9.24L68.31 9.24L68.31 9.24Q68.61 9.37 69.26 9.56L69.26 9.56L69.26 9.56Q70.06 9.80 70.64 10.23L70.64 10.23L70.64 10.23Q71.22 10.67 71.22 11.61L71.22 11.61L71.22 11.61Q71.22 12.45 70.62 13.05L70.62 13.05L70.62 13.05Q70.03 13.65 68.60 13.65L68.60 13.65Z"></path></g><!----><!----></svg>